# xmcd
#
# Track frame offsets:
#	183
#	10503
#	25650
#	37800
#	50870
#	62635
#	73053
#	91603
#	102643
#	108958
#	124325
#	143160
#	154458
#	167955
#	180563
#	194785
#	206895
#	223153
#	243810
#	260005
#	266763
#
# Disc length: 3752 seconds
#
# Revision: 2
# Processed by: cddbd v1.4PL0 Copyright (c) Steve Scherf et al.
# Submitted via: audiograbber 1.81.03
#
DISCID=3d0ea615
DTITLE=Blues Saraceno - Plaid - Never Look Back
DYEAR=1993
DGENRE=Blues
TTITLE0=Last Train Out
TTITLE1=Elvis Talking
TTITLE2=The Scratch
TTITLE3=Friday's Walk
TTITLE4=A Little More Cream Please
TTITLE5=Girth
TTITLE6=A Lighter Shade Of Plaid
TTITLE7=Cat's Squirrel
TTITLE8=L.A. Vignette
TTITLE9=Exit 21
TTITLE10=Tommy Gun
TTITLE11=Remember When
TTITLE12=Never Look Back
TTITLE13=Full Tank
TTITLE14=Jay Walkin'
TTITLE15=Deliverance
TTITLE16=The Shakes
TTITLE17=Before The Storm
TTITLE18=Funk 49
TTITLE19=Jitter Blast
TTITLE20=Frazin'
EXTD=
EXTT0=
EXTT1=
EXTT2=
EXTT3=
EXTT4=
EXTT5=
EXTT6=
EXTT7=
EXTT8=
EXTT9=
EXTT10=
EXTT11=
EXTT12=
EXTT13=
EXTT14=
EXTT15=
EXTT16=
EXTT17=
EXTT18=
EXTT19=
EXTT20=
PLAYORDER=
